<?xml version="1.0" encoding="UTF-8" standalone="no"?>
<!DOCTYPE svg PUBLIC "-//W3C//DTD SVG 1.1//EN" "http://www.w3.org/Graphics/SVG/1.1/DTD/svg11.dtd">
<svg width="100%" height="100%" viewBox="0 0 1080 1080" version="1.1" xmlns="http://www.w3.org/2000/svg" xmlns:xlink="http://www.w3.org/1999/xlink" xml:space="preserve" xmlns:serif="http://www.serif.com/" style="fill-rule:evenodd;clip-rule:evenodd;stroke-linejoin:round;stroke-miterlimit:2;">
    <g id="Gemini_Generated_Image_v5srr2v5srr2v5sr.png">
    </g>
    <g id="Gemini_Generated_Image_dtmgmfdtmgmfdtmg.png" transform="matrix(1.283203,0,0,1.283203,-119.870736,-48.388033)">
        <path d="M568.472,58.42C564.608,66.356 476.716,187.418 458.514,279.502C441.796,364.079 504.225,411.109 539.582,422.246C630.235,450.801 703.463,366.931 694.326,295.52C681.62,196.214 588.509,72.032 583.482,60.532C587.883,60.371 740.639,77.809 846.863,221.233C977.2,397.213 944.141,650.297 755.838,785.976C585.481,908.725 373.78,872.548 249.453,760.554C54.043,584.529 73.558,302.631 259.912,147.99C400.811,31.069 562.807,56.267 568.472,58.42Z" style="fill:rgb(88,168,214);"/>
        <path d="M568.472,58.42C574.986,57.544 582.338,60.13 583.482,60.532C588.509,72.032 681.62,196.214 694.326,295.52C703.463,366.931 630.235,450.801 539.582,422.246C504.225,411.109 441.796,364.079 458.514,279.502C476.716,187.418 564.608,66.356 568.472,58.42Z" style="fill:rgb(254,254,254);"/>
        <path d="M351.866,356.378C392.451,473.319 485.445,498.451 542.302,564.671C599.076,630.795 544.757,735.68 434.609,711.033C402.961,703.951 302.376,664.367 307.767,495.509C310.149,420.911 331.298,356.224 341.807,322.67C343.691,316.651 343.891,327.174 348.895,346.4C349.104,347.206 349.115,347.139 351.866,356.378Z" style="fill:rgb(254,254,254);"/>
        <path d="M591.079,288.609C591.341,289.619 612.826,360.714 586.432,378.394C571.609,388.323 530.999,381.872 561.773,278.571C572.97,240.986 574.854,237.721 576.098,240.711C582.149,255.253 590.041,284.731 591.079,288.609Z" style="fill:rgb(89,168,212);"/>
    </g>
</svg>
