<?xml version="1.0" encoding="UTF-8" standalone="no"?>
<!DOCTYPE svg PUBLIC "-//W3C//DTD SVG 1.1//EN" "http://www.w3.org/Graphics/SVG/1.1/DTD/svg11.dtd">
<svg width="100%" height="100%" viewBox="0 0 1080 1080" version="1.1" xmlns="http://www.w3.org/2000/svg" xmlns:xlink="http://www.w3.org/1999/xlink" xml:space="preserve" xmlns:serif="http://www.serif.com/" style="fill-rule:evenodd;clip-rule:evenodd;stroke-linejoin:round;stroke-miterlimit:2;">
    <g id="ChatGPT-Image-22-de-abr.-de-2026--23_07_50.png" serif:id="ChatGPT Image 22 de abr. de 2026, 23_07_50.png" transform="matrix(1.43457,0,0,1.43457,-215.043319,-126.906667)">
        <path d="M173.282,521.629C172.213,519.336 164.897,503.645 168.132,490.429C172.755,471.538 176.551,470.002 210.878,445C413.855,297.162 414.226,297.867 431.789,284.909C460,264.094 472.901,278.417 512.758,300.02C567.775,329.84 586.413,345.21 591.478,343.442C593.161,342.854 657.96,284.877 663.702,279.74C700.759,246.585 703.425,246.383 701.261,243.679C687.503,226.489 687.158,226.893 673.088,209.907C671.592,208.101 660.293,194.461 670.762,180.686C678.907,169.969 684.362,171.419 735.5,171.442C856.335,171.496 856.308,171.749 859.434,171.907C873.22,172.604 882.523,185.26 886.101,192.034C893.373,205.8 888.555,235.792 875.224,252.341C873.775,254.141 872.408,257.517 855.109,273.069C836.401,289.889 813.977,311.363 813.124,312.04C802.216,320.686 794.202,334.166 780.499,334.372C764.953,334.606 759.678,323.486 756.343,319.638C753.88,316.796 753.349,319.458 738.384,331.356C729.2,338.658 656.077,402.741 655.814,402.934C651.635,405.997 614.152,441.178 607.335,444.12C581.852,455.114 576.535,438.968 478.773,383.022C466.052,375.743 464.648,371.287 452.788,379.888C440.366,388.897 350.032,454.414 297.215,492.092C239.982,532.92 232.724,542.087 217.464,544.306C189.79,548.332 175.371,525.008 173.282,521.629Z" style="fill:rgb(51,126,56);"/>
        <path d="M712.544,436.549C716.969,432.979 762.314,396.395 767.6,391.613C781.664,378.889 804.282,384.325 807.396,404.514C807.599,405.835 807.489,772.892 807.478,773.499C807.311,782.278 797.862,793.436 787.473,794.017C787.108,794.038 707.582,794.072 706.501,794.064C679.234,793.876 662.194,797.516 657.412,774.517C657.09,772.967 657.334,550.437 657.251,501.5C657.205,474.854 664.641,476.796 712.544,436.549Z" style="fill:rgb(51,126,56);"/>
        <path d="M445.613,502.684C453.55,498.917 453.851,499.468 487.5,499.461C507.5,499.463 527.5,499.466 547.5,499.468C555.942,499.458 585.9,494.789 585.798,523.501C585.694,552.872 585.827,768.511 585.72,773.513C585.623,778.022 580.504,793.894 563.499,793.985C541.855,794.101 462.286,794.07 455.478,793.95C446.521,793.791 435.358,784.36 434.999,772.496C434.74,763.944 435.041,591.258 435.068,575.498C435.174,515.115 432.551,511.997 445.613,502.684Z" style="fill:rgb(51,126,56);"/>
        <path d="M351.536,605.461C360.558,614.198 359.227,615.835 359.255,669.5C359.309,773.728 359.025,773.738 358.125,776.383C351.989,794.426 335.091,791.435 308.5,791.442C222.856,791.462 222.258,791.901 216.818,788.015C204.921,779.516 206.563,775.684 206.584,722.5C206.623,618.999 205.856,618.592 208.865,612.695C215.23,600.223 225.683,600.101 227.482,600.08C236.677,599.973 335.286,598.823 342.425,600.808C347.442,602.203 347.367,602.341 351.536,605.461Z" style="fill:rgb(51,126,56);"/>
    </g>
</svg>
