<?xml version="1.0" encoding="UTF-8" standalone="no"?>
<!DOCTYPE svg PUBLIC "-//W3C//DTD SVG 1.1//EN" "http://www.w3.org/Graphics/SVG/1.1/DTD/svg11.dtd">
<svg width="100%" height="100%" viewBox="0 0 1080 1080" version="1.1" xmlns="http://www.w3.org/2000/svg" xmlns:xlink="http://www.w3.org/1999/xlink" xml:space="preserve" xmlns:serif="http://www.serif.com/" style="fill-rule:evenodd;clip-rule:evenodd;stroke-linejoin:round;stroke-miterlimit:2;">
    <g id="Gemini_Generated_Image_dp7ag8dp7ag8dp7a.png" transform="matrix(1.496117,0,0,1.496117,-226.566781,-138.963551)">
        <path d="M604.258,768.117C573.382,787.558 537.152,805.724 526.46,808.357C513.818,811.47 507.467,812.61 470.706,795.075C398.395,760.583 232.046,644.748 179.953,542.274C152.781,488.824 161.316,455.282 165.074,375.485C169.354,284.604 170.564,280.534 172.915,272.623C187.737,222.765 226.377,235.336 296.401,217.095C368.855,198.222 419.031,144.317 469.198,113.019C541.673,67.803 575.126,135.323 673.682,191.178C737.548,227.373 815.401,212.935 841.301,242.673C857.676,261.473 856.995,277.387 862.297,397.509C866.115,484.027 878.91,534.327 756.494,650.494C682.424,720.783 607.363,766.101 604.258,768.117Z" style="fill:rgb(52,48,52);"/>
        <path d="M852.166,338.512C852.439,351.282 855.361,415.096 855.629,419.494C860.076,492.45 853.648,514.394 825.981,558.816C779.355,633.681 654.311,733.505 570.695,778.91C533.555,799.077 521.095,807.109 499.605,799.222C425.802,772.135 289.863,672.944 224.008,593.988C155.626,512.002 167.608,466.843 171.206,400.482C175.626,318.962 175.24,278.348 184.664,262.599C198.353,239.724 203.069,243.358 285.447,227.14C359.4,212.581 407.723,164.044 465.838,123.994C518.18,87.923 548.32,111.559 588.746,142.203C670.015,203.808 696.662,212.649 732.571,220.148C804.972,235.268 836.236,226.616 847.002,271.618C850.477,286.145 852.08,333.037 852.166,338.512Z" style="fill:rgb(150,43,39);"/>
        <path d="M276.543,241.804C351.579,229.389 394.534,191.336 449.403,151.367C505.078,110.81 516.481,102.664 583.858,154.018C602.283,168.062 602.57,167.537 613.398,175.628C686.083,229.936 719.008,229.739 750.539,236.222C813.084,249.08 830.479,238.942 836.465,287.503C836.99,291.757 841.001,376.863 841.283,387.507C843.416,468.041 863.324,510.68 766.656,611.67C680.964,701.193 553.507,781.151 517.439,789.159C490.341,795.175 271.708,660.953 201.904,540.248C175.738,495.001 181.235,453.037 182.404,429.494C189.362,289.303 188.565,289.038 192.403,277.469C201.591,249.775 211.535,254.704 276.543,241.804Z" style="fill:rgb(61,44,47);"/>
        <path d="M190.885,411.518C194.082,349.624 195.834,308.22 197.884,288.529C201.643,252.423 223.43,262.149 294.524,245.591C375.582,226.712 415.422,182.283 476.204,141.053C525.524,107.598 541.219,133.427 606.135,179.96C681.647,234.089 701.872,235.661 776.534,248.3C814.929,254.799 825.948,251.762 829.034,290.53C832.936,339.548 833.904,382.502 834.084,390.508C835.686,461.573 851.131,499.137 787.219,577.279C704.848,677.991 547.079,776.851 516.514,781.636C493.619,785.22 324.938,683.523 239.07,579.874C181.265,510.098 186.987,475.337 190.885,411.518Z" style="fill:rgb(160,38,36);"/>
        <path d="M562.008,435.476C561.821,438.999 559.878,475.772 559.604,479.508C557.566,507.278 560.837,522.86 549.521,522.976C546.62,523.005 481.711,523.227 480.57,523.045C471.18,521.543 473.438,515.503 471.49,481.501C470.597,465.91 471.398,465.881 462.383,286.505C460.259,244.228 459.281,243.988 460.929,240.715C464.524,233.574 466.686,234.933 511.49,234.86C562.247,234.777 562.43,233.825 566.525,235.444C575.265,238.9 571.161,249.09 569.132,300.485C568.839,307.915 562.086,432.797 562.008,435.476Z" style="fill:rgb(254,254,253);"/>
        <path d="M514.494,677.97C434.134,675.272 442.309,574.663 517.5,576.428C576.098,577.803 581.981,635.898 564.237,656.264C547.199,675.82 533.827,677.346 514.494,677.97Z" style="fill:rgb(254,253,253);"/>
        <path d="M479.5,525.455C476.862,526.885 476.73,527.955 475.368,526.63C475.174,526.441 474.476,524.045 479.5,525.455Z" style="fill:rgb(155,35,29);"/>
        <path d="M556.377,525.469C556.81,523.64 556.687,523.54 556.843,523.5C558.31,523.125 556.711,524.058 556.377,525.469Z" style="fill:rgb(143,30,31);"/>
    </g>
</svg>
