<?xml version="1.0" encoding="UTF-8" standalone="no"?>
<!DOCTYPE svg PUBLIC "-//W3C//DTD SVG 1.1//EN" "http://www.w3.org/Graphics/SVG/1.1/DTD/svg11.dtd">
<svg width="100%" height="100%" viewBox="0 0 1080 1080" version="1.1" xmlns="http://www.w3.org/2000/svg" xmlns:xlink="http://www.w3.org/1999/xlink" xml:space="preserve" xmlns:serif="http://www.serif.com/" style="fill-rule:evenodd;clip-rule:evenodd;stroke-linejoin:round;stroke-miterlimit:2;">
    <g id="ChatGPT-Image-22-de-abr.-de-2026--23_07_44.png" serif:id="ChatGPT Image 22 de abr. de 2026, 23_07_44.png" transform="matrix(1.310547,0,0,1.310547,-127.863096,-79.26989)">
        <path d="M909.267,636.5C909.248,649.27 912.191,667.082 895.491,666.751C894.685,666.735 847.434,650.801 797.672,666.982C765.437,677.463 697.835,719.58 605.577,685.298C554.041,666.149 519.869,642.358 440.356,677.179C327.758,726.49 265.69,676.758 216.539,664.343C163.583,650.966 130.318,669.983 119.651,666.075C109.799,662.465 111.287,657.667 111.176,620.501C111.136,607.32 115.933,598.051 156.484,592.367C178.14,589.331 199.722,592.457 203.44,592.995C208.582,593.74 208.983,594.825 210.207,593.281C210.574,592.819 210.612,592.724 210.581,372.5C210.577,342.783 208.807,339.891 229.173,324.078L472.139,135.032C488.756,122.098 507.239,101.474 534.157,122.942C580.611,159.99 596,169.792 775.859,312.065C776.623,312.669 780.89,316.044 785.482,319.522C806.519,335.459 809.516,336.082 809.443,362.5C809.392,380.979 808.811,590.974 809.54,593.486C810.502,596.799 832.167,586.876 873.521,593.387C904.845,598.318 907.875,610.314 908.667,613.454C909.42,616.432 909.275,616.739 909.267,636.5ZM272.523,443.5C272.5,457.26 272.237,613.161 272.544,615.495C273.245,620.82 335.969,644.905 391.413,628.227C412.608,621.852 413.134,620.852 413.129,617.499C413.103,600.856 412.818,413.797 413.215,409.458C414.513,395.266 431.614,397.85 450.5,397.837C461.86,397.829 585.932,397.742 592.497,397.854C609.554,398.143 606.93,410.564 606.884,440.501C606.862,454.736 606.613,615.416 606.945,618.435C607.307,621.738 634.432,630.265 652.48,632.627C706.075,639.638 746.24,619.221 746.6,618.574C747.333,617.256 747.09,617.125 747.125,524.499C747.13,511.94 747.184,370.783 747.143,367.507C747.083,362.815 746.018,362.664 686.146,314.958C676.17,307.008 532.107,193.991 526.195,189.934C513.326,181.104 511.352,178.598 498.801,187.906C494.421,191.154 306.107,338.727 295.867,345.989C294.38,347.043 294.6,347.263 277.898,359.984C270.858,365.346 272.53,373.78 272.516,381.5C272.502,388.886 272.496,435.401 272.523,443.5Z" style="fill:rgb(4,130,51);"/>
        <path d="M669.533,832.061C604.07,826.728 578.519,804.312 540.497,798.52C444.554,783.905 438.551,842.502 296.511,831.366C194.633,823.379 161.504,798.224 132.753,744.365C131.89,742.749 122.978,726.055 139.493,722.471C202.824,708.723 255.277,743.023 311.614,753.015C388.784,766.704 437.098,734.386 473.598,724.86C564.15,701.228 584.944,760.294 687.516,755.81C765.265,752.41 796.823,708.333 882.526,722.359C888.078,723.267 896.529,730.035 891.039,741.258C875.154,773.732 856.316,789.979 852.386,793.369C802.357,836.515 689.149,833.36 669.533,832.061Z" style="fill:rgb(5,131,51);"/>
        <path d="M863.733,191.352C874.598,209.754 891.921,243.838 870.06,277.204C848.309,310.4 789.086,308.782 773.379,262.541C757.318,215.257 806.903,164.277 816.919,150.811C824.311,140.872 825.621,142.022 826.37,142.68C828.419,144.479 849.29,166.877 863.733,191.352Z" style="fill:rgb(5,131,51);"/>
    </g>
</svg>
