<?xml version="1.0" encoding="UTF-8" standalone="no"?>
<!DOCTYPE svg PUBLIC "-//W3C//DTD SVG 1.1//EN" "http://www.w3.org/Graphics/SVG/1.1/DTD/svg11.dtd">
<svg width="100%" height="100%" viewBox="0 0 1080 1080" version="1.1" xmlns="http://www.w3.org/2000/svg" xmlns:xlink="http://www.w3.org/1999/xlink" xml:space="preserve" xmlns:serif="http://www.serif.com/" style="fill-rule:evenodd;clip-rule:evenodd;stroke-linejoin:round;stroke-miterlimit:2;">
    <g id="ChatGPT-Image-22-de-abr.-de-2026--23_07_32.png" serif:id="ChatGPT Image 22 de abr. de 2026, 23_07_32.png" transform="matrix(1.411133,0,0,1.411133,-203.653423,-153.496649)">
        <path d="M850.098,628.426C839.476,679.119 821.87,725.148 678.81,829.917C652.309,849.324 630.713,860.412 580.5,860.377C378.775,860.234 378.143,860.841 376.975,859.144C375.939,857.64 376.477,857.403 376.343,597.5C376.343,597.48 375.468,592.359 378.484,592.302C394.131,592.011 809.059,592.285 846.501,592.309C847.009,592.31 852.365,592.313 852.77,593.36C852.959,593.851 853.84,608.656 850.098,628.426Z" style="fill:rgb(5,102,172);"/>
        <path d="M563.984,415.397C562.988,416.001 563.241,416.943 556.482,417.054C510.476,417.805 510.564,416.241 464.506,416.955C461.574,417 408.821,414.611 383.407,470.456C373.436,492.369 377.956,510.381 375.472,519.546C349.303,515.793 304.992,532.144 252.07,487.988C200.426,444.9 208.123,378.158 208.122,361.5C208.121,352.135 208.114,244.596 208.133,244.444C208.419,242.161 209.594,242.568 246.5,242.52C271.778,242.487 560.221,242.111 562.471,242.613C564.185,242.995 563.867,243.894 563.904,319.499C563.938,390.057 563.821,402.062 563.984,415.397Z" style="fill:rgb(5,102,172);"/>
        <path d="M563.984,415.397C566.603,418.136 567.37,416.768 647.499,416.976C782.252,417.327 785.432,414.215 809.262,427.92C829.639,439.639 852.305,464.037 852.951,500.492C853.021,504.422 853.772,546.791 852.855,549.632C852.141,551.843 850.893,550.716 639.501,550.906C618.617,550.925 383.228,551.137 378.453,550.931C373.48,550.715 378.593,526.315 375.472,519.546C377.956,510.381 373.436,492.369 383.407,470.456C408.821,414.611 461.574,417 464.506,416.955C510.564,416.241 510.476,417.805 556.482,417.054C563.241,416.943 562.988,416.001 563.984,415.397Z" style="fill:rgb(5,87,151);"/>
        <path d="M178.796,169.5C178.804,160.24 177.452,150.475 185.999,139.938C193.379,130.841 204.708,129.163 206.555,128.889C209.571,128.443 565.14,128.62 566.46,128.806C599.506,133.457 595.009,167.998 594.705,175.511C594.13,189.696 583.609,203.765 566.518,205.697C558.693,206.581 300.621,205.867 277.499,205.803C206.198,205.606 200.404,207.845 189.709,198.25C177.364,187.177 178.884,175.32 178.796,169.5Z" style="fill:rgb(5,101,171);"/>
        <path d="M565.779,848.521C584.977,807.762 603.173,763.448 719.743,648.747C747.069,621.859 763.043,645.602 764.463,652.509C769.158,675.356 756.952,684.835 698.24,724.1C629.679,769.952 584.522,822.418 568.183,848.2C567.51,849.262 567.256,848.712 565.779,848.521Z" style="fill:rgb(70,144,205);"/>
        <path d="M498.169,316.499C498.156,335.949 501.004,343.557 481.5,343.545C454.538,343.529 445.029,345.51 443.393,333.51C443.341,333.131 443.106,295.016 443.509,291.501C444.832,279.967 458.501,282.077 478.501,282.083C483.331,282.085 492.496,280.889 496.201,286.71C498.656,290.567 498.158,292.202 498.169,316.499Z" style="fill:rgb(99,167,225);"/>
    </g>
</svg>
