<?xml version="1.0" encoding="UTF-8" standalone="no"?>
<!DOCTYPE svg PUBLIC "-//W3C//DTD SVG 1.1//EN" "http://www.w3.org/Graphics/SVG/1.1/DTD/svg11.dtd">
<svg width="100%" height="100%" viewBox="0 0 1080 1080" version="1.1" xmlns="http://www.w3.org/2000/svg" xmlns:xlink="http://www.w3.org/1999/xlink" xml:space="preserve" xmlns:serif="http://www.serif.com/" style="fill-rule:evenodd;clip-rule:evenodd;stroke-linejoin:round;stroke-miterlimit:2;">
    <g id="Gemini_Generated_Image_v5srr2v5srr2v5sr.png" transform="matrix(1.40332,0,0,1.40332,-190.460409,-147.543228)">
        <path d="M149.219,543.446C156.551,506.418 173.072,441.244 264.927,329.851C339.768,239.09 474.502,126.345 482.268,131.903C494.391,140.58 765.737,392.297 800.621,574.477C825.323,703.479 708.794,829.179 525.487,853.402C422.492,867.013 340.192,827.353 325.59,820.316C223.057,770.906 144.222,675.012 145.931,573.507C146.1,563.442 148.846,545.836 149.219,543.446Z" style="fill:rgb(194,150,48);"/>
        <path d="M549.899,363.465C542.472,275.743 531.946,253.126 538.724,260.088C558.513,280.411 580.642,293.264 640.077,379.815C653.021,398.665 681.172,448.098 695.657,489.446C713.065,539.137 743.003,639.444 660.561,715.567C569.984,799.203 393.198,787.254 397.074,653.477C399.55,568.01 460.003,537.644 501.84,504.924C555.71,462.791 552.45,401.419 549.899,363.465Z" style="fill:rgb(236,220,178);"/>
        <path d="M848.72,211.31C848.722,211.95 847.21,211.86 847.212,212.5C847.214,213.337 848.262,213.806 848.729,214.5C853.099,220.999 853.684,220.541 853.998,221.142C854.167,221.464 853.711,221.927 853.913,222.23C854.434,223.013 855.5,223.335 855.994,224.135C856.199,224.468 855.639,224.937 855.801,225.293C855.999,225.726 856.681,225.765 856.925,226.173C857.574,227.263 856.62,227.562 857.5,228.554C857.84,228.937 858.56,228.89 858.832,229.325C858.912,229.454 857.847,229.491 858.926,231.222C859.029,231.387 859.291,231.41 859.388,231.578C860.335,233.222 860.279,233.158 861.113,234.78C879.53,270.598 876.673,297.851 876.087,303.443C871.11,350.913 815.602,411.983 755.588,372.371C745.061,365.422 748.566,361.68 745.5,360.821C744.951,360.667 744.606,361.892 744.057,361.738C742.56,358.864 712.787,311.741 736.014,251.31C737.532,247.363 747.678,217.559 776.667,185.658C796.579,163.745 798.287,164.424 800.28,165.873C820.805,180.794 845.134,207.389 848.72,211.31Z" style="fill:rgb(212,169,54);"/>
        <path d="M848.72,211.31C875.968,244.09 885.665,261.081 893.774,287.41C915.437,357.746 846.715,430.31 789.496,407.509C771.956,400.52 752.585,378.499 744.057,361.738C744.606,361.892 744.951,360.667 745.5,360.821C748.566,361.68 745.061,365.422 755.588,372.371C815.602,411.983 871.11,350.913 876.087,303.443C876.673,297.851 879.53,270.598 861.113,234.78C860.279,233.158 860.335,233.222 859.388,231.578C859.291,231.41 859.029,231.387 858.926,231.222C857.847,229.491 858.912,229.454 858.832,229.325C858.56,228.89 857.84,228.937 857.5,228.554C856.62,227.562 857.574,227.263 856.925,226.173C856.681,225.765 855.999,225.726 855.801,225.293C855.639,224.937 856.199,224.468 855.994,224.135C855.5,223.335 854.434,223.013 853.913,222.23C853.711,221.927 854.167,221.464 853.998,221.142C853.684,220.541 853.099,220.999 848.729,214.5C848.262,213.806 847.214,213.337 847.212,212.5C847.21,211.86 848.722,211.95 848.72,211.31Z" style="fill:rgb(196,154,52);"/>
    </g>
</svg>
