<?xml version="1.0" encoding="UTF-8" standalone="no"?>
<!DOCTYPE svg PUBLIC "-//W3C//DTD SVG 1.1//EN" "http://www.w3.org/Graphics/SVG/1.1/DTD/svg11.dtd">
<svg width="100%" height="100%" viewBox="0 0 1080 1080" version="1.1" xmlns="http://www.w3.org/2000/svg" xmlns:xlink="http://www.w3.org/1999/xlink" xml:space="preserve" xmlns:serif="http://www.serif.com/" style="fill-rule:evenodd;clip-rule:evenodd;stroke-linejoin:round;stroke-miterlimit:2;">
    <g id="ChatGPT-Image-22-de-abr.-de-2026--23_07_38.png" serif:id="ChatGPT Image 22 de abr. de 2026, 23_07_38.png" transform="matrix(1.455078,0,0,1.455078,-181.501816,-165.630871)">
        <path d="M297.86,665.466C295.032,640.677 264.215,370.547 263.207,355.523C261.924,336.42 275.055,321.032 294.506,319.589C295.81,319.493 726.471,319.5 729.494,319.599C742.609,320.031 754.321,329.974 758.268,339.599C764.031,353.649 760.249,354.347 742.353,518.485C728.437,646.118 727.399,645.89 713.281,773.474C710.36,799.866 710.23,841.676 659.5,841.72C635.42,841.741 463.928,841.889 358.501,841.334C335.167,841.211 319.919,824.035 314.974,808.355C312.376,800.119 299.938,681.189 297.86,665.466ZM420.454,401.203C390.804,408.892 394.624,429.483 394.6,465.5C394.587,485.259 394.439,708.943 394.681,712.493C397.526,754.241 454.714,750.435 456.098,713.479C456.123,712.808 456.267,432.279 456.033,429.54C454.85,415.73 443.536,398.212 420.454,401.203ZM604.547,401.235C603.587,401.137 596.521,400.417 592.485,401.43C564.204,408.535 567.973,435.497 567.975,451.5C568.005,687.953 567.77,687.942 567.961,708.501C568.358,751.217 617.483,752.623 628.113,721.364C629.816,716.355 629.555,716.251 629.615,465.5C629.624,426.528 632.722,409.486 604.547,401.235ZM640.907,190.457C642.88,214.179 639.593,222.272 643.481,222.61C652.687,223.411 774.147,221.122 784.378,223.943C818.639,233.39 812.409,284.11 775.5,284.35C684.554,284.943 367.02,284.45 331.5,284.395C240.868,284.254 239.975,285.271 230.711,279.165C204.725,262.036 217.674,223.304 247.505,222.651C258.366,222.413 380.896,223.137 382.361,222.275C387.629,219.173 370.207,171.978 415.855,136.972C438.942,119.267 467.389,122.299 510.499,122.264C567.103,122.218 588.068,119.329 613.118,139.97C625.27,149.984 631.282,161.388 632.074,162.743C638.184,173.196 640.544,188.158 640.907,190.457ZM472.499,164.056C465.091,164.069 437.326,160.943 427.273,190.422C424.951,197.233 425.242,221.4 426.639,222.274C427.58,222.863 597.11,223.014 598.267,222.178C598.599,221.938 601.476,198.262 596.091,185.687C585.187,160.221 555.081,164.112 551.499,164.066C545.18,163.986 545.248,164.133 472.499,164.056Z" style="fill:rgb(202,106,4);"/>
    </g>
</svg>
