<?xml version="1.0" encoding="UTF-8" standalone="no"?><!DOCTYPE svg PUBLIC "-//W3C//DTD SVG 1.1//EN" "http://www.w3.org/Graphics/SVG/1.1/DTD/svg11.dtd"><svg width="100%" height="100%" viewBox="0 0 4267 1042" version="1.1" xmlns="http://www.w3.org/2000/svg" xmlns:xlink="http://www.w3.org/1999/xlink" xml:space="preserve" xmlns:serif="http://www.serif.com/" style="fill-rule:evenodd;clip-rule:evenodd;stroke-linejoin:round;stroke-miterlimit:2;"><path d="M265.566,399.123c-0.234,27.61 -7.899,134.576 106.778,210.191c41.898,27.627 87.827,36.74 95.935,38.349c160.793,31.905 242.563,-73.712 257.548,-74.289c10.567,-0.407 31.621,26.47 86.745,76.318c14.263,12.897 4.595,16.356 -17.056,36.102c-73.643,67.165 -173.21,91.457 -189.717,95.484c-81.78,19.952 -234.564,22.1 -372.827,-77.311c-217.505,-156.385 -175.294,-422.182 -5.911,-564.187c33.275,-27.897 128.345,-91.83 241.444,-103.742c59.99,-6.318 60.026,-6.223 120.072,-0.174c24.316,2.45 128.766,20.654 213.169,86.859c14.25,11.177 25.228,14.311 9.323,29.651c-42.328,40.825 -79.12,88.707 -90.9,87.687c-13.305,-1.152 -63.602,-74.001 -205.705,-71.335c-6.011,0.113 -41.986,5.594 -45.877,6.595c-125.616,32.301 -195.006,123.736 -203.021,223.801Z" style="fill:#f1f1f1;"/><path d="M1920.952,762.284c5.222,-0.133 172.567,4.028 406.027,35.986c74.103,10.144 74.088,9.1 148.215,19.883c253.563,36.887 252.773,41.52 349.294,53.151c86.509,10.424 329.886,58.881 645.84,43.059c357.439,-17.899 489.9,-87.598 497.468,-87.541c4.858,0.037 13.337,8.208 -4.72,13.732c-15.44,4.724 -86.441,38.331 -292.769,89.767c-17.125,4.269 -69.602,15.952 -96.687,20.296c-33.435,5.362 -79.034,14.484 -85.885,15.854c-5.064,1.013 -126.342,17.48 -143.432,19.156c-351.514,34.468 -593.175,-24.706 -828.992,-59.295c-29.287,-4.296 -199.388,-34.303 -216.714,-37.359c-22.647,-3.995 -174.878,-25.672 -205.988,-28.303c-17.796,-1.505 -117.386,-9.927 -223.114,-7.772c-21.198,0.432 -23.943,4.58 -26.642,-2.857c-1.99,-5.486 3.529,-4.022 36.031,-63.423c7.927,-14.487 7.85,-14.492 8.588,-15.496c9.307,-12.659 26.78,-8.634 33.479,-8.838Z" style="fill:#f1f1f1;"/><path d="M1492.063,968.043c-3.143,-0.063 -168.425,3.743 -85.699,-14.56c10.741,-2.376 173.45,-56.567 259.806,-169.434c22.263,-29.097 36.043,-41.989 27.386,-59.847c-4.921,-10.152 -221.994,-416.332 -222.128,-417.129c-1.644,-9.771 5.441,-7.096 123.625,-7.481c19.62,-0.064 22.882,-2.382 32.362,14.709c4.653,8.39 4.472,8.398 112.954,220.688c24.026,47.017 21.825,52.469 30.696,50.762c3.349,-0.644 15.243,-35.961 47.104,-106.672c33.207,-73.699 31.661,-74.174 64.636,-147.899c10.184,-22.768 11.891,-30.502 26.628,-31.034c8.959,-0.323 112.494,0.402 126.001,-0.536c20.094,-1.395 7.704,12.339 -3.715,37.441c-19.238,42.291 -173.621,376.313 -204.207,432.455c-94.022,172.578 -239.574,192.398 -335.447,198.538Z" style="fill:#f1f1f1;"/><path d="M4007.712,750.315c-32.407,-0.585 -102.713,0.071 -189.192,-41.569c-36.884,-17.76 -37.184,-20.792 -37.537,-24.354c-0.423,-4.272 1.04,-7.276 20.199,-28.769c33.427,-37.499 31.298,-52.782 53.201,-41.638c125.652,63.929 224.807,44.664 239.224,13.747c25.094,-53.816 -80.763,-53.769 -183.785,-83.221c-168.169,-48.077 -99.885,-166.375 -97.936,-169.305c73.612,-110.647 289.118,-81.264 355.058,-48.708c32.213,15.905 44.504,17.046 31.976,34.326c-16.919,23.336 -36.835,54.344 -37.298,54.961c-11.201,14.922 -21.927,-1.237 -63.12,-14.58c-29.031,-9.403 -78.511,-15.602 -79.151,-15.642c-98.852,-6.201 -96.113,41.148 -78.758,57.544c38.195,36.083 260.089,26.803 287.66,133.741c33.551,130.133 -127.828,175.984 -220.541,173.467Z" style="fill:#f1f1f1;"/><path d="M943.31,980.143c-38.767,-0.182 -418.675,13.085 -670.433,-155.931c-11.318,-7.598 -69.26,-46.497 -128.551,-111.852c-1.262,-1.391 -21.254,-23.428 -7.141,-22.369c2.965,0.222 41.406,39.744 64.567,55.267c240.816,161.404 573.344,142.552 598.631,142.447c227.793,-0.942 535.631,-86.114 788.957,-116.591c7.041,-0.847 9.863,-2.172 10.083,5.027c0.1,3.255 -41.291,44.264 -74.593,66.471c-61.263,40.854 -225.653,137.639 -581.52,137.531Z" style="fill:#607a44;"/><path d="M1300.846,564.772c-0.814,35.018 -4.39,73.688 48.002,87.175c29.345,7.554 88.634,-14.948 92.291,-14.298c8.642,1.537 6.098,46.038 9.501,81.646c2.512,26.279 -6.75,24.038 -32.024,31.283c-14.937,4.281 -114.829,32.913 -193.933,-10.823c-76.702,-42.408 -66.61,-124.538 -66.613,-237.867c-0.002,-91.469 0.583,-93.651 -2.969,-97.455c-6.851,-7.336 -78.092,0.52 -85.136,-6.399c-5.739,-5.636 -2.65,-7.038 -2.999,-67.669c-0.013,-2.191 -0.141,-24.445 3.19,-27.207c7.498,-6.218 78.186,1.28 85.531,-6.339c5.883,-6.102 0.321,-98.282 4.662,-103.778c4.543,-5.752 6.069,-3.798 91.68,-5.18c17.494,-0.282 43.888,-2.525 47.029,4.49c4.255,9.505 -1.087,96.099 5.016,103.246c7.838,9.179 123.016,-1.361 129.082,7.471c3.738,5.442 3.887,88.128 -0.463,94.155c-6.67,9.238 -120.379,-1.909 -129.489,7.22c-2.771,2.777 -2.721,3.488 -2.759,137.463c-0.003,11.507 0.199,11.356 0.4,22.866Z" style="fill:#f1f1f1;"/><path d="M3516.039,744.596c-129.072,3.433 -320.249,-71.744 -293.31,-260.137c10.946,-76.55 86.207,-126.422 97.233,-133.728c1.573,-1.043 65.666,-50.845 201.744,-52.082c27.317,-0.248 98.623,6.601 153.85,32.855c32.54,15.469 57.976,35.101 58.81,38.393c2.706,10.69 -3.098,9.446 -62.258,65.353c-16.22,15.328 -20.03,-12.654 -81.677,-30.792c-131.076,-38.565 -255.702,43.594 -224.909,143.732c23.939,77.848 167.698,142.905 292.61,49.582c11.856,-8.858 12.612,0.234 61.629,38.18c25.99,20.12 25.7,23.19 25.426,26.091c-0.665,7.052 -44.639,37.357 -63.136,46.084c-82.67,39.004 -133.302,36.05 -166.014,36.469Z" style="fill:#f1f1f1;"/><path d="M2615.345,438.989c-0.169,-5.785 0.096,-11.577 -0.073,-17.361c-0.486,-16.667 -13.438,-12.724 -53.994,-12.806c-19.799,-0.04 -28.04,4.218 -28.224,-15.574c-0.621,-66.842 -1.307,-67.469 2.444,-71.826c5.61,-6.518 66.821,-2.866 71.229,-4.234c13.716,-4.258 7.132,-10.04 9.054,-78.459c0.243,-8.659 -0.542,-10.524 7.974,-12.76c1.244,-0.327 117.319,-4.449 120.261,-3.646c10.073,2.751 6.279,29.633 6.804,79.44c0.171,16.254 5.805,14.704 21.984,14.732c144.22,0.256 150.697,-1.209 154.286,2.515c3.206,3.327 2.92,20.952 2.891,22.79c-0.599,36.878 4.079,61.782 -8.979,65.75c-1.139,0.346 -132.106,0.203 -154.018,0.59c-8.91,0.157 -15.026,1.946 -15.258,13.777c-2.625,133.401 0.419,152.876 2.47,165.998c8.29,53.042 68.37,54.326 75.839,54.485c75.914,1.622 101.276,-24.589 102.098,2.452c2.071,68.151 -0.253,70.541 -4.434,74.84c-8.034,8.261 -102.49,29.91 -154.86,22.036c-66.631,-10.017 -91.233,-28.192 -97.881,-33.103c-65.711,-48.544 -59.149,-66.832 -59.612,-269.636Z" style="fill:#f1f1f1;"/><path d="M2101.244,690.543c0.036,-139.115 0.072,-278.23 0.108,-417.344c-0.02,-86.422 -0.647,-89.991 8.104,-92.077c5.097,-1.215 117.079,-1.172 120.451,-0.343c12.325,3.029 6.529,8.96 8.269,126.734c0.358,24.264 0.47,24.147 0.42,182.936c-0.053,170.13 0.953,224.316 -3.33,228.575c-5.425,5.396 -124.401,2.909 -126.397,2.528c-10.004,-1.907 -8.095,-17.964 -7.625,-31.008Z" style="fill:#f1f1f1;"/><path d="M1014.973,730.586c-0.601,3.661 0.474,7.469 -0.127,11.131c-1.817,11.067 -6.889,9.138 -100.135,9.073c-24.394,-0.017 -41.332,3.653 -41.976,-14.385c-0.337,-9.433 -1.704,-423.749 0.345,-429.622c2.66,-7.623 5.781,-5.599 104.489,-6.688c17.752,-0.196 36.36,-4.841 36.977,12.892c1.212,34.838 -0.474,374.388 0.426,417.599Z" style="fill:#f1f1f1;"/><path d="M3081.526,732.999c-18.159,-0.013 -50.249,0.048 -51.894,-0.262c-10.676,-2.015 -8.959,-13.771 -8.934,-19.307c0.151,-33.347 -0.037,-374.602 0.217,-383.021c0.308,-10.189 -0.458,-12.361 9.44,-15.073c6.059,-1.66 99.635,-0.672 108.298,-0.581c9.752,0.103 12.154,-0.067 13.127,9.65c0.471,4.7 0.844,386.599 0.436,394.846c-0.857,17.322 -9.428,13.719 -70.691,13.747Z" style="fill:#f1f1f1;"/><path d="M2472.241,353.191c1.545,164.473 0.057,326.18 -0.204,354.542c-0.167,18.129 4.423,25.782 -13.682,26.382c-27.56,0.912 -89.352,0.004 -97.12,-0.11c-22.023,-0.324 -16.025,-9.967 -16.196,-32.031c-0.472,-60.823 -0.928,-364.749 0.08,-371.442c1.837,-12.199 12.346,-10.226 96.071,-10.214c1.802,0 21.742,0.003 22.527,0.282c6.443,2.294 6.909,2.602 8.056,9.425c0.307,1.828 0.035,1.715 0.469,23.167Z" style="fill:#f1f1f1;"/><path d="M871.253,187.41c0.235,-2.858 -3.678,-56.432 55.495,-72.16c45.727,-12.154 71.961,19.63 76.03,24.559c49.309,59.741 -21.241,145.585 -92.756,108.507c-39.928,-20.701 -38.266,-55.65 -38.768,-60.907Z" style="fill:#5c753f;"/><path d="M2347.159,210.302c8.927,-75.872 102.535,-65.388 114.56,-10.924c16.166,73.22 -107.61,97.794 -114.56,10.924Z" style="fill:#5e7640;"/></svg>